<svg width="24" height="25" viewBox="0 0 24 25" fill="none" xmlns="http://www.w3.org/2000/svg">
<g opacity="0.5">
<path opacity="0.4" d="M15.7975 13.4252L19.4967 13.7523C20.3269 13.7523 21 13.0727 21 12.2344C21 11.3962 20.3269 10.7165 19.4967 10.7165L15.7975 11.0437C15.1463 11.0437 14.6183 11.5768 14.6183 12.2344C14.6183 12.8931 15.1463 13.4252 15.7975 13.4252Z" fill="#FF5A3C"/>
<path d="M3.37534 13.365C3.43316 13.4234 3.64915 13.6701 3.85206 13.875C5.03568 15.1583 8.12619 17.2567 9.7429 17.8989C9.98835 18.0013 10.6091 18.2194 10.9418 18.2349C11.2592 18.2349 11.5625 18.1611 11.8516 18.0157C12.2127 17.8119 12.5007 17.4902 12.66 17.1113C12.7614 16.8491 12.9207 16.0616 12.9207 16.0472C13.0789 15.1869 13.165 13.788 13.165 12.2415C13.165 10.7698 13.0789 9.42818 12.949 8.55357C12.9349 8.53815 12.7756 7.5611 12.6021 7.22623C12.2847 6.61379 11.664 6.23486 10.9996 6.23486H10.9418C10.5087 6.24918 9.5989 6.62921 9.5989 6.64243C8.06837 7.28462 5.05096 9.28168 3.83788 10.609C3.83788 10.609 3.49534 10.9505 3.34698 11.1631C3.11571 11.4693 3.00007 11.8482 3.00007 12.2272C3.00007 12.6501 3.12989 13.0434 3.37534 13.365Z" fill="#FF5A3C"/>
</g>
</svg>
